<?xml version="1.0" standalone="no"?>
<!DOCTYPE svg PUBLIC "-//W3C//DTD SVG 20010904//EN"
 "http://www.w3.org/TR/2001/REC-SVG-20010904/DTD/svg10.dtd">
<svg version="1.0" xmlns="http://www.w3.org/2000/svg"
 width="700.000000pt" height="700.000000pt" viewBox="0 0 700.000000 700.000000"
 preserveAspectRatio="xMidYMid meet">

<g transform="translate(0.000000,700.000000) scale(0.100000,-0.100000)"
fill="#000000" stroke="none">
<path d="M3608 6993 c6 -2 18 -2 25 0 6 3 1 5 -13 5 -14 0 -19 -2 -12 -5z"/>
<path d="M3805 6980 c604 -82 1107 -264 1567 -570 521 -345 895 -763 1172
-1310 194 -381 308 -756 352 -1151 20 -185 15 -660 -10 -849 -78 -591 -280
-1119 -601 -1567 -219 -305 -499 -583 -805 -799 -491 -347 -1072 -565 -1675
-629 -182 -19 -561 -19 -741 0 -495 52 -928 195 -1340 442 -540 324 -1006 824
-1344 1440 -206 377 -343 886 -373 1388 -2 31 -4 20 -5 -30 -5 -238 71 -650
180 -970 430 -1270 1552 -2183 2888 -2349 816 -101 1701 120 2410 602 422 287
773 661 1031 1098 469 794 605 1777 369 2669 -329 1242 -1321 2212 -2570 2509
-160 38 -371 72 -495 80 l-80 5 70 -9z"/>
<path d="M2738 6913 c7 -3 16 -2 19 1 4 3 -2 6 -13 5 -11 0 -14 -3 -6 -6z"/>
<path d="M2535 6866 c-145 -42 -429 -145 -422 -152 2 -2 62 18 133 45 120 45
238 82 409 130 39 11 61 20 50 20 -11 0 -87 -19 -170 -43z"/>
<path d="M3140 6761 c0 -25 4 -31 23 -31 12 0 32 -3 45 -6 l22 -6 -2 -212 -3
-211 -35 0 -35 0 -20 75 c-12 43 -26 75 -33 74 -43 -3 -42 -3 -42 -73 0 -98
-16 -115 -140 -146 -61 -16 -97 -20 -101 -14 -3 6 -14 46 -24 90 -21 92 -17
101 45 97 30 -3 38 -9 55 -45 15 -31 26 -42 43 -43 34 0 36 22 13 118 -44 174
-39 164 -69 160 -24 -3 -27 -7 -28 -47 -2 -49 -16 -67 -62 -80 -35 -10 -28
-23 -63 113 -6 21 -8 40 -6 43 11 11 155 43 194 43 36 0 45 -5 66 -32 13 -18
30 -48 37 -66 10 -26 17 -31 34 -26 11 3 25 10 29 14 8 7 -35 195 -47 208 -8
7 -517 -115 -529 -127 -4 -5 -5 -19 -2 -33 6 -21 11 -24 53 -24 l47 1 42 -170
c54 -216 54 -230 8 -245 -35 -12 -44 -31 -26 -59 7 -11 58 -1 277 55 271 68
297 72 502 74 41 0 43 1 40 28 -3 24 -8 28 -48 32 l-45 5 0 95 0 95 58 -1 c87
-2 117 -42 117 -156 0 -86 31 -118 111 -118 70 0 106 40 112 125 2 37 0 40
-25 43 -24 3 -28 0 -28 -23 0 -33 -17 -65 -34 -65 -18 0 -26 22 -27 78 -1 70
-11 94 -48 119 -29 20 -31 23 -15 28 94 29 138 116 97 195 -36 68 -60 75 -310
78 l-223 4 0 -31z m392 -52 c43 -23 47 -98 7 -135 -16 -15 -37 -18 -102 -19
l-82 0 -1 75 c-1 107 -4 103 85 95 42 -4 84 -11 93 -16z m-372 -455 c0 -13 -4
-24 -10 -24 -5 0 -10 14 -10 31 0 17 4 28 10 24 6 -3 10 -17 10 -31z"/>
<path d="M2010 6670 c-8 -5 -10 -10 -5 -10 6 0 17 5 25 10 8 5 11 10 5 10 -5
0 -17 -5 -25 -10z"/>
<path d="M4232 6644 c-63 -23 -135 -98 -160 -167 -59 -158 2 -316 148 -381
124 -56 245 -43 335 36 70 61 99 131 99 233 0 70 -3 87 -29 133 -35 64 -71 96
-145 130 -69 32 -184 39 -248 16z m214 -73 c86 -39 109 -140 65 -274 -52 -155
-168 -207 -283 -126 -38 28 -62 97 -54 158 27 207 136 304 272 242z"/>
<path d="M2185 6506 c-281 -117 -285 -119 -279 -141 10 -33 21 -39 53 -25 17
7 37 10 45 7 13 -5 166 -352 166 -376 0 -6 -12 -16 -27 -22 -16 -6 -42 -18
-60 -26 -18 -9 -38 -13 -46 -10 -17 6 -228 294 -235 320 -3 13 5 27 23 41 30
24 30 51 0 62 -19 8 -205 -125 -205 -146 0 -8 23 -89 50 -180 27 -90 47 -166
45 -168 -3 -3 -66 41 -140 97 -75 56 -142 104 -150 107 -15 6 -215 -133 -215
-150 0 -5 7 -17 16 -27 15 -17 17 -16 47 1 18 11 37 16 43 12 20 -14 234 -316
234 -331 0 -9 -9 -22 -20 -28 -17 -11 -27 -6 -81 39 l-62 51 -18 -24 c-17 -23
-17 -24 18 -67 24 -30 37 -57 40 -85 5 -40 1 -47 -58 -120 -34 -42 -66 -77
-70 -77 -12 0 -139 111 -139 122 0 16 48 58 67 58 10 0 33 -9 52 -21 l34 -20
21 21 21 21 -40 36 c-22 19 -71 60 -108 90 l-68 56 -21 -21 -21 -21 27 -31
c14 -17 26 -40 26 -49 0 -21 -37 -71 -52 -71 -6 0 -37 23 -69 51 l-59 51 46
57 c99 119 124 129 207 86 50 -27 60 -26 77 5 8 16 -2 28 -69 84 -43 36 -83
66 -88 66 -8 0 -221 -249 -323 -378 l-34 -43 22 -21 22 -22 28 27 c15 15 35
27 43 27 21 -1 303 -242 307 -263 2 -12 -4 -20 -16 -24 -11 -3 -26 -18 -32
-34 -9 -22 -19 -29 -39 -28 -14 0 -100 38 -191 83 -176 88 -176 88 -155 152 5
16 0 23 -20 32 -26 12 -26 11 -82 -104 l-57 -115 135 -135 c102 -102 129 -134
112 -134 -12 0 -94 11 -184 25 -89 14 -165 22 -169 18 -3 -4 -31 -59 -60 -121
-45 -94 -52 -115 -40 -122 27 -17 49 -10 65 20 9 17 19 30 24 30 16 0 359
-169 366 -180 4 -6 1 -25 -6 -42 -11 -27 -10 -32 6 -44 10 -8 24 -14 29 -14 6
0 36 52 65 116 53 112 54 117 36 130 -27 20 -31 18 -54 -21 -11 -19 -25 -35
-30 -35 -23 0 -324 155 -306 158 11 1 112 -11 225 -27 l205 -29 18 20 c9 11
17 28 17 37 0 9 -73 86 -162 173 -90 86 -160 159 -157 162 6 6 304 -135 321
-152 6 -6 3 -25 -6 -47 -9 -21 -15 -39 -14 -40 11 -9 50 -26 53 -23 1 2 24 45
49 96 37 73 83 137 215 296 92 112 180 219 194 237 14 19 60 59 101 89 42 30
76 59 76 64 0 5 -7 18 -16 28 -16 17 -18 17 -52 -4 l-35 -21 -22 25 c-41 48
-197 269 -193 273 2 3 83 -53 179 -123 97 -71 181 -132 187 -136 16 -9 62 22
62 43 0 9 -29 110 -65 225 -36 115 -63 211 -61 213 2 3 22 -19 43 -49 107
-144 173 -239 173 -245 0 -5 -14 -20 -31 -34 -29 -23 -30 -27 -18 -47 8 -12
18 -22 24 -22 6 0 54 32 108 71 84 61 95 73 87 89 -14 26 -12 40 4 40 17 0 28
-24 20 -45 -6 -15 8 -9 280 106 143 60 190 131 150 227 -24 56 -58 83 -118 89
l-46 6 25 29 c30 35 33 84 9 134 -35 73 -121 83 -249 30z m124 -63 c29 -24 42
-74 27 -104 -14 -29 -135 -94 -149 -80 -17 17 -67 145 -59 152 13 12 116 48
138 48 12 1 31 -7 43 -16z m120 -227 c27 -28 37 -85 21 -116 -13 -24 -150 -93
-162 -82 -15 15 -69 155 -65 166 7 18 105 55 148 55 25 1 42 -6 58 -23z m-885
-738 c5 -9 7 -20 3 -24 -8 -8 -47 24 -47 38 0 15 32 5 44 -14z m-325 -391 c8
-10 7 -18 -2 -30 -10 -14 -14 -14 -31 -2 -16 12 -17 17 -6 30 15 18 24 19 39
2z"/>
<path d="M4778 6474 c-11 -24 -10 -28 6 -38 66 -39 68 -25 -34 -215 -51 -94
-101 -176 -111 -182 -14 -7 -27 -5 -50 6 -29 15 -32 15 -45 -2 -21 -28 -17
-38 29 -60 23 -12 83 -45 134 -73 l92 -50 15 27 c13 26 13 28 -15 45 -16 10
-32 25 -36 33 -3 9 9 44 27 78 47 89 47 89 81 72 37 -20 46 -57 26 -101 -16
-34 -16 -34 12 -48 32 -17 18 -34 115 146 l47 87 -31 16 c-29 15 -30 15 -41
-9 -17 -38 -60 -51 -98 -32 l-30 16 36 68 c20 37 39 71 43 75 8 10 104 -41
138 -74 37 -34 43 -62 26 -126 -14 -53 -14 -59 2 -70 10 -7 23 -13 29 -13 10
0 115 177 115 193 0 4 -431 243 -462 255 -4 2 -13 -9 -20 -24z"/>
<path d="M3420 6063 c-297 -11 -644 -92 -912 -213 -725 -328 -1264 -1039
-1403 -1855 -84 -491 11 -1117 240 -1580 339 -688 939 -1126 1775 -1295 299
-61 546 -63 827 -5 456 93 964 370 1278 696 364 379 591 837 672 1359 25 161
25 595 0 760 -45 302 -119 536 -249 795 -350 699 -1058 1214 -1813 1319 -109
15 -288 23 -415 19z m1504 -574 c88 -59 320 -330 489 -571 179 -256 267 -443
342 -730 61 -234 69 -304 70 -598 0 -334 -20 -485 -97 -720 -94 -290 -295
-701 -352 -723 -15 -6 -515 268 -586 321 -92 68 -243 242 -333 385 -44 68 -46
95 -17 223 13 57 23 145 27 244 3 85 9 162 14 171 5 9 33 31 63 48 87 49 142
133 245 375 26 61 78 162 115 224 80 134 176 331 212 440 35 104 31 202 -14
317 -30 75 -161 321 -231 429 -31 50 -41 114 -25 174 8 29 22 28 78 -9z
m-2930 -124 c-11 -12 -50 -60 -87 -106 -121 -148 -176 -299 -163 -439 10 -101
22 -131 74 -193 57 -67 79 -131 113 -322 31 -176 63 -227 174 -283 58 -29 71
-48 90 -127 27 -120 77 -179 205 -246 42 -22 61 -24 260 -30 209 -6 223 -8
500 -63 170 -34 291 -63 300 -72 23 -23 16 -124 -20 -289 -18 -80 -30 -151
-27 -159 3 -7 18 -16 34 -19 23 -5 35 -20 68 -82 31 -60 37 -80 29 -93 -19
-29 -57 -42 -128 -42 -57 0 -74 -4 -92 -21 l-23 -21 -118 37 -117 37 -28 -31
c-45 -50 -36 -91 13 -66 58 31 119 11 223 -72 35 -28 70 -47 85 -48 40 0 37
-28 -7 -52 -21 -12 -46 -31 -57 -43 -17 -19 -17 -21 0 -40 28 -31 81 -43 170
-38 45 3 89 2 98 -3 8 -5 21 -25 27 -44 6 -19 20 -40 31 -45 10 -6 19 -14 19
-19 0 -7 -35 -56 -69 -97 -5 -6 -79 -29 -165 -50 -142 -35 -157 -37 -183 -24
-73 38 -316 311 -428 482 -111 169 -145 205 -132 138 16 -79 159 -250 581
-694 l129 -136 -35 -45 c-82 -105 -198 -214 -262 -247 -22 -11 -61 -21 -86
-21 -94 -1 -160 70 -229 248 -107 273 -149 502 -170 930 -9 190 -22 244 -59
264 -32 17 -55 2 -157 -106 -173 -184 -298 -259 -610 -367 -104 -36 -223 -79
-264 -96 -41 -16 -76 -29 -77 -27 -15 15 -109 234 -137 322 -147 449 -163 887
-52 1351 85 356 218 624 457 927 101 128 309 337 316 318 2 -7 -4 -23 -14 -36z
m1590 -2711 c9 -3 16 -14 16 -24 0 -21 -35 -54 -49 -45 -15 9 -14 62 2 68 6 3
13 6 14 6 1 1 8 -2 17 -5z m267 -533 c-6 -10 -47 -61 -92 -112 -45 -52 -85
-105 -90 -118 -15 -37 -4 -67 61 -176 33 -54 60 -102 60 -107 0 -23 -96 -36
-352 -48 -5 0 -8 -20 -8 -45 0 -25 -4 -45 -9 -45 -5 0 -26 23 -46 50 -42 57
-80 74 -102 45 -7 -11 -13 -26 -13 -35 0 -25 -29 -60 -51 -60 -29 0 -26 64 5
93 13 12 25 31 27 42 3 11 21 28 41 37 51 24 81 69 118 176 l33 92 41 0 c48 0
74 15 187 106 135 109 216 154 190 105z m-692 -537 c12 -11 12 -18 3 -39 -13
-27 -32 -26 -32 2 0 14 -4 13 -23 -5 -37 -34 -53 1 -21 46 17 24 45 23 73 -4z"/>
<path d="M3063 3288 c-41 -44 -79 -106 -91 -152 -9 -31 -8 -38 5 -43 21 -8 67
44 111 125 51 97 38 135 -25 70z"/>
<path d="M3390 2931 c0 -11 6 -21 13 -24 20 -7 37 4 37 24 0 14 -7 19 -25 19
-18 0 -25 -5 -25 -19z"/>
<path d="M3426 1725 c-47 -31 -44 -50 10 -85 48 -30 78 -37 101 -22 17 11 43
76 43 106 0 24 -2 25 -62 23 -43 -1 -71 -8 -92 -22z"/>
<path d="M5487 5922 l-78 -78 24 -22 24 -22 19 21 c26 28 67 49 99 49 33 0 85
-29 85 -48 0 -7 -65 -79 -144 -160 l-144 -146 -35 27 c-43 33 -48 33 -66 5
-13 -20 -9 -26 55 -86 38 -35 88 -82 110 -104 38 -36 43 -38 63 -26 27 17 27
29 -4 58 -14 13 -25 30 -25 38 0 15 267 295 286 300 15 4 54 -59 54 -87 0 -27
-15 -56 -47 -95 l-25 -30 24 -17 c23 -18 23 -18 101 59 42 42 77 79 77 82 0
10 -350 355 -363 358 -6 1 -47 -33 -90 -76z"/>
<path d="M5967 5559 c-17 -10 -17 -12 3 -45 12 -19 20 -38 18 -44 -5 -16 -340
-228 -353 -224 -6 3 -19 18 -29 35 -17 28 -19 29 -39 16 -12 -8 -21 -22 -21
-31 2 -22 147 -246 160 -246 6 0 19 9 29 19 16 19 16 21 -4 50 -12 16 -21 34
-21 40 0 11 132 101 148 101 4 0 29 -35 56 -78 27 -42 56 -87 63 -99 14 -21
11 -24 -54 -67 -37 -25 -75 -46 -83 -46 -8 0 -25 16 -38 35 -22 35 -23 35 -48
19 -14 -9 -23 -22 -21 -29 3 -6 34 -57 70 -112 54 -84 82 -145 166 -364 66
-175 104 -263 113 -261 46 11 208 79 208 87 0 6 -6 19 -13 29 -12 16 -19 17
-63 8 -63 -13 -99 -6 -124 25 -23 29 -84 183 -75 191 3 3 42 20 88 38 l82 32
13 -30 c19 -45 11 -70 -31 -97 -32 -21 -37 -29 -32 -51 4 -14 8 -26 10 -28 4
-4 248 88 258 98 4 4 3 18 -4 32 -10 23 -14 25 -44 15 -42 -13 -78 7 -93 53
-10 28 -9 32 11 39 12 5 46 19 76 30 30 12 57 18 61 14 15 -16 70 -173 70
-199 0 -28 -59 -94 -84 -94 -24 0 -34 -23 -22 -51 l11 -27 97 37 c53 20 100
39 103 43 6 5 -79 240 -181 501 -5 14 -13 17 -33 12 -35 -9 -35 -8 -21 -50 10
-30 10 -39 -1 -50 -21 -20 -359 -147 -375 -141 -21 8 -67 118 -57 135 11 17
324 220 340 221 6 0 20 -13 30 -30 9 -16 22 -30 28 -30 20 1 47 29 40 42 -5 7
-42 66 -83 130 -64 102 -77 116 -93 108 -29 -16 -31 -27 -10 -68 19 -37 19
-40 3 -54 -31 -26 -123 -81 -128 -76 -9 10 -124 192 -124 197 0 7 107 77 131
86 12 4 23 -4 39 -29 25 -41 30 -43 59 -18 21 17 21 17 -59 140 -44 67 -85
122 -92 122 -7 0 -21 -5 -31 -11z m-37 -809 c0 -12 -35 -31 -44 -23 -11 11 -6
21 12 26 29 8 32 7 32 -3z"/>
<path d="M392 3988 c-7 -7 -12 -27 -12 -44 0 -33 -20 -58 -28 -36 -2 7 -19 12
-38 12 l-34 0 0 -340 0 -340 26 -6 c14 -4 30 -2 37 5 21 21 37 12 37 -23 0
-55 28 -65 189 -67 101 -1 111 3 111 54 0 20 5 27 20 27 11 0 20 -5 20 -11 0
-6 12 -9 28 -7 26 3 27 6 35 78 4 41 6 201 5 355 l-3 280 -27 3 c-16 2 -28 -1
-28 -7 0 -6 -9 -11 -20 -11 -15 0 -20 7 -20 29 0 61 0 61 -149 61 -93 0 -141
-4 -149 -12z m206 -115 c2 -7 -4 -13 -12 -13 -27 0 -30 -29 -7 -54 l22 -23
-25 -30 c-25 -30 -21 -53 11 -53 20 0 15 -21 -6 -27 -27 -7 -31 -23 -15 -68 8
-25 10 -44 3 -56 -14 -28 -11 -79 5 -79 24 0 30 -21 7 -27 -25 -6 -29 -50 -6
-59 21 -8 19 -28 -5 -49 -27 -24 -25 -42 5 -49 47 -12 25 -26 -39 -26 -69 0
-93 14 -52 30 31 11 32 21 6 45 -26 23 -25 33 3 63 l22 24 -22 15 c-28 19 -29
29 -3 36 23 6 27 46 8 77 -10 16 -10 24 0 40 19 32 15 77 -8 83 -23 6 -27 27
-5 27 27 0 29 30 5 56 l-23 24 23 24 c24 26 22 56 -5 56 -16 0 -20 12 -8 24
12 12 116 2 121 -11z"/>
<path d="M6272 3988 c-7 -7 -12 -27 -12 -44 0 -33 -20 -58 -28 -36 -2 7 -19
12 -38 12 l-34 0 0 -340 0 -340 26 -6 c14 -4 30 -2 37 5 21 21 37 12 37 -23 0
-18 7 -39 15 -46 18 -15 230 -30 263 -18 17 6 22 15 22 43 0 28 4 35 20 35 11
0 20 -4 20 -10 0 -5 13 -10 29 -10 l29 0 7 93 c3 50 5 211 3 357 l-3 265 -27
3 c-16 2 -28 -1 -28 -7 0 -6 -9 -11 -20 -11 -15 0 -20 7 -20 29 0 61 0 61
-149 61 -93 0 -141 -4 -149 -12z m206 -115 c2 -7 -4 -13 -12 -13 -28 0 -30
-29 -5 -56 l23 -24 -27 -28 c-21 -22 -24 -31 -15 -40 7 -7 18 -12 25 -12 21 0
15 -21 -8 -27 -18 -5 -20 -11 -15 -47 3 -23 6 -48 6 -56 0 -8 -3 -33 -6 -56
-5 -36 -3 -42 15 -47 27 -7 27 -27 1 -27 -25 0 -27 -36 -3 -62 15 -17 15 -20
-7 -43 -19 -20 -21 -27 -10 -40 7 -8 19 -15 26 -15 8 0 14 -4 14 -10 0 -13
-127 -13 -135 0 -3 6 6 15 21 20 25 10 26 11 10 33 -28 38 -29 48 -7 68 26 25
27 39 1 46 -11 3 -20 11 -20 18 0 7 9 15 20 18 23 6 28 55 8 75 -9 9 -9 18 0
37 19 41 15 82 -8 88 -23 6 -27 27 -5 27 27 0 29 30 5 56 l-23 24 23 24 c24
26 22 56 -5 56 -16 0 -20 12 -8 24 12 12 116 2 121 -11z"/>
<path d="M6070 2902 c0 -15 5 -33 12 -40 9 -9 4 -20 -24 -50 -46 -48 -68 -91
-75 -150 -11 -99 41 -184 126 -203 90 -20 140 15 223 157 68 118 95 143 136
128 42 -15 56 -55 42 -115 -7 -27 -22 -64 -34 -82 -28 -43 -100 -79 -150 -75
-35 2 -40 0 -49 -25 -5 -16 -7 -30 -6 -32 11 -9 213 -64 220 -59 14 8 10 46
-6 64 -13 15 -11 21 28 61 71 74 99 210 59 289 -31 63 -112 100 -188 86 -46
-9 -101 -67 -148 -156 -51 -96 -81 -130 -117 -130 -45 0 -72 34 -64 78 17 99
66 149 159 163 49 8 66 20 66 50 0 11 -26 23 -89 42 -114 34 -121 34 -121 -1z"/>
<path d="M813 2912 c-7 -5 -11 -26 -10 -52 l2 -45 -180 -62 c-99 -34 -187 -62
-196 -62 -11 -1 -23 14 -33 39 -15 38 -17 39 -45 29 l-29 -10 17 -52 c10 -29
30 -91 46 -140 15 -48 31 -89 34 -92 4 -2 17 -1 29 2 20 5 22 11 20 56 l-3 50
69 23 c39 13 75 24 82 24 7 0 24 -35 38 -78 33 -97 64 -144 111 -167 45 -21
111 -14 148 16 34 26 46 24 58 -8 7 -20 6 -30 -3 -38 -18 -17 -299 -189 -321
-198 -14 -5 -27 2 -48 24 -28 30 -30 31 -54 15 l-24 -16 91 -147 c50 -82 111
-182 136 -223 68 -113 55 -110 165 -43 53 32 96 63 97 69 0 5 -6 18 -13 28
-13 18 -16 18 -71 -3 -70 -26 -87 -26 -119 -1 -21 16 -117 160 -117 174 0 7
148 96 159 96 12 0 41 -51 41 -73 0 -15 -31 -51 -57 -65 -14 -9 -15 -14 -5
-36 6 -14 16 -26 22 -26 5 0 61 32 124 71 100 62 114 74 106 90 -15 28 -29 32
-60 19 -41 -17 -72 -7 -94 30 -10 17 -16 33 -14 34 31 27 141 86 147 80 28
-30 101 -173 101 -198 0 -21 -12 -41 -46 -74 -41 -42 -44 -48 -33 -69 7 -13
16 -23 21 -23 4 0 49 25 98 56 l90 55 -22 38 c-182 303 -265 430 -280 431 -15
0 -18 9 -18 57 0 41 -15 102 -57 230 -57 173 -65 187 -100 165z m66 -276 c24
-78 17 -115 -24 -135 -47 -23 -85 -18 -110 13 -20 25 -59 126 -51 133 5 6 140
51 153 52 7 1 21 -28 32 -63z"/>
<path d="M5913 2387 c-27 -25 -71 -94 -137 -214 -93 -169 -107 -189 -277 -387
-170 -199 -178 -210 -163 -228 23 -24 33 -23 66 8 26 25 28 26 50 11 41 -28
271 -232 282 -249 8 -13 5 -25 -13 -49 l-24 -32 23 -19 c28 -23 6 -44 205 192
82 96 155 183 164 194 15 17 13 21 -39 68 -30 27 -71 63 -91 79 l-37 29 -16
-25 c-16 -25 -16 -27 19 -72 63 -83 58 -112 -40 -221 l-57 -62 -41 39 c-23 21
-55 50 -72 64 l-30 25 29 31 c35 37 46 38 97 9 31 -17 41 -19 54 -8 30 25 30
25 -116 153 -36 31 -71 57 -77 57 -6 0 -16 -9 -22 -20 -9 -16 -7 -26 10 -49
26 -37 26 -71 -1 -105 l-20 -26 -65 52 c-35 29 -64 58 -64 64 0 6 33 45 73 87
83 89 100 93 178 51 40 -22 51 -25 64 -14 26 22 17 44 -40 89 l-54 43 20 39
c10 22 24 39 30 39 10 0 334 -175 356 -192 9 -8 8 -19 -4 -50 -15 -39 -15 -42
2 -55 11 -7 23 -12 28 -10 11 3 147 247 147 263 0 6 -11 16 -25 22 -24 11 -27
9 -46 -23 -12 -19 -28 -35 -36 -35 -25 0 -153 74 -153 89 0 20 38 79 63 96 31
22 54 19 125 -15 100 -47 152 -38 186 34 27 57 21 84 -29 133 -51 48 -69 53
-86 22 -9 -18 -8 -24 3 -30 36 -20 61 -47 54 -57 -11 -18 -41 -14 -107 14 -61
25 -61 25 -98 7 l-38 -19 1 58 c1 54 -2 60 -36 94 -29 30 -45 38 -86 42 -46 4
-52 2 -89 -31z m94 -97 c42 -25 54 -50 44 -86 -13 -47 -60 -134 -72 -134 -18
0 -139 71 -139 82 0 12 48 97 69 122 14 16 44 33 61 35 3 1 19 -8 37 -19z"/>
<path d="M1220 1709 c-118 -49 -227 -90 -243 -91 -15 -1 -36 7 -47 17 -20 18
-21 18 -42 -3 l-21 -21 36 -43 c20 -24 59 -68 86 -98 l50 -55 22 22 22 21 -28
36 -27 35 34 21 c18 11 39 21 46 21 6 1 16 2 21 3 4 1 36 -29 69 -66 l61 -67
-25 -46 c-14 -25 -31 -45 -37 -45 -6 0 -23 12 -38 26 -24 23 -29 24 -48 12
-11 -7 -21 -17 -21 -22 0 -5 39 -52 87 -105 48 -53 90 -100 94 -104 4 -5 16
-3 28 5 22 13 28 42 11 53 -20 13 -9 68 29 138 93 174 181 348 181 360 0 12
-70 87 -80 87 -3 -1 -102 -41 -220 -91z m158 -37 c-15 -36 -84 -162 -89 -162
-4 0 -26 21 -50 47 l-43 47 79 37 c79 37 110 47 103 31z"/>
<path d="M1644 1514 c-17 -25 -17 -26 14 -51 18 -13 32 -30 32 -36 -1 -7 -51
-82 -113 -167 -89 -121 -119 -156 -138 -158 -14 -2 -32 4 -39 12 -7 9 -17 16
-23 16 -10 0 -36 -30 -37 -42 0 -7 148 -120 211 -161 26 -17 27 -17 43 8 17
25 16 27 -8 46 -34 26 -33 39 6 94 31 44 33 45 88 45 l57 0 -5 -107 c-2 -60
-8 -112 -12 -117 -5 -5 -21 1 -36 13 -25 20 -28 20 -46 5 -33 -31 -41 -23 189
-188 l52 -37 17 25 c16 25 15 27 -15 55 l-31 29 0 170 0 171 43 6 c23 3 74 7
113 8 69 2 74 0 130 -38 l59 -40 33 -145 34 -145 -18 -53 c-9 -28 -25 -65 -35
-82 l-18 -29 -43 15 c-39 14 -44 13 -55 -3 -7 -9 -13 -22 -13 -28 0 -6 66 -39
148 -73 133 -55 148 -59 160 -45 21 28 14 42 -28 59 -47 19 -48 28 -16 109 28
68 24 64 179 157 99 59 123 70 153 66 30 -4 38 0 47 19 6 14 7 27 1 32 -11 11
-235 103 -239 99 -2 -2 -6 -15 -10 -31 -6 -24 -4 -28 24 -38 21 -7 31 -17 29
-27 -3 -16 -132 -102 -153 -102 -13 0 -45 157 -37 178 3 8 12 11 23 8 11 -3
28 -9 38 -12 21 -7 50 32 34 46 -4 5 -64 33 -133 62 -94 40 -153 74 -237 136
-62 45 -116 82 -120 82 -5 0 -14 -9 -21 -21 -12 -18 -11 -24 9 -45 12 -13 20
-26 17 -29 -7 -7 -250 -36 -256 -31 -5 6 98 146 108 146 5 0 22 -8 39 -17 29
-17 31 -17 45 2 9 11 16 23 16 26 0 5 -119 95 -207 157 l-32 22 -17 -26z m536
-358 c0 -3 -4 -8 -10 -11 -5 -3 -10 -1 -10 4 0 6 5 11 10 11 6 0 10 -2 10 -4z"/>
<path d="M5245 1491 c-51 -13 -95 -40 -232 -143 l-131 -99 16 -29 c15 -26 18
-27 36 -14 11 8 24 14 27 14 9 0 237 -304 246 -326 3 -10 -7 -26 -26 -42 l-31
-27 19 -25 19 -24 157 118 c86 66 167 133 180 151 83 108 70 239 -35 357 -71
80 -155 110 -245 89z m64 -106 c39 -19 115 -106 140 -158 26 -54 27 -112 2
-154 -17 -27 -118 -113 -133 -113 -8 0 -261 340 -257 344 2 2 33 24 68 50 53
38 71 46 108 46 24 0 57 -7 72 -15z"/>
<path d="M4760 1190 c-58 -27 -109 -51 -113 -53 -5 -1 -3 -15 4 -30 10 -22 17
-27 33 -22 71 23 74 22 105 -46 16 -35 45 -99 65 -143 39 -84 37 -87 -35 -39
-23 15 -49 33 -58 38 -9 6 -18 13 -21 16 -3 3 -43 30 -90 59 -47 30 -99 64
-116 77 l-31 23 -94 -44 c-52 -25 -103 -44 -114 -44 -11 1 -80 -14 -152 -33
-115 -29 -133 -37 -133 -54 0 -32 12 -40 59 -40 l44 0 49 -185 c26 -102 48
-191 48 -198 0 -8 -17 -20 -39 -29 -35 -14 -38 -18 -31 -42 9 -32 10 -32 168
10 126 33 133 38 116 82 -4 12 -12 13 -41 5 -24 -6 -39 -6 -46 1 -5 5 -32 92
-58 192 -48 182 -50 216 -16 221 7 0 26 2 42 4 17 1 44 6 60 9 l30 6 84 -180
c47 -103 81 -188 77 -196 -3 -9 -19 -21 -36 -26 -33 -12 -37 -25 -16 -54 13
-18 18 -17 135 35 66 30 121 61 121 68 0 7 -4 22 -10 32 -9 17 -12 18 -50 3
-35 -14 -43 -14 -54 -2 -17 18 -150 308 -144 314 2 3 98 -58 213 -135 115 -77
213 -140 217 -140 10 0 108 49 108 54 0 2 -36 82 -81 177 -131 281 -122 256
-97 281 17 17 19 24 9 40 -6 10 -9 23 -6 28 8 14 12 15 -105 -40z m-455 -258
c-8 -9 -25 20 -18 31 3 5 10 2 15 -7 6 -10 7 -20 3 -24z"/>
<path d="M2942 859 c3 -31 6 -34 38 -37 19 -2 39 -7 43 -12 8 -7 -18 -378 -28
-407 -3 -8 -22 -13 -50 -13 -43 0 -45 -1 -45 -29 0 -34 -5 -32 220 -51 172
-15 218 -13 266 10 48 24 74 73 74 140 0 45 -45 106 -86 116 -27 7 -33 24 -8
24 26 0 71 31 83 57 6 13 11 43 11 67 0 92 -68 129 -270 145 -74 6 -161 14
-193 18 l-58 6 3 -34z m346 -71 c38 -11 52 -33 52 -82 0 -60 -26 -76 -121 -76
l-81 0 7 83 c4 45 9 85 12 89 5 9 84 0 131 -14z m-53 -228 c45 -7 66 -16 83
-35 31 -36 30 -94 -3 -129 -22 -24 -30 -26 -104 -26 -46 0 -83 5 -86 11 -4 6
-4 51 0 100 8 101 2 97 110 79z"/>
<path d="M3615 861 c-90 -11 -130 -20 -129 -28 1 -7 2 -23 3 -34 1 -18 5 -20
34 -15 57 11 62 0 86 -212 12 -106 19 -197 16 -202 -3 -6 -24 -13 -46 -16 -40
-7 -49 -23 -30 -53 8 -13 44 -11 255 14 135 16 251 32 257 36 8 5 8 36 -2 115
-7 60 -15 113 -19 117 -4 4 -19 5 -34 1 -24 -6 -26 -10 -26 -63 0 -102 -28
-127 -152 -137 l-75 -7 -12 89 c-23 178 -34 311 -28 327 4 11 18 17 41 17 41
0 46 6 39 43 -6 31 4 31 -178 8z"/>
</g>
</svg>
